# xmcd CD database file
#
# Track frame offsets:
#	150
#	20176
#	37876
#	55127
#	74178
#	91579
#	114904
#	134480
#	153306
#	167931
#
# Disc length: 2386 seconds
#
# Revision: 0
# Processed by: cddbd v1.5.2PL0 Copyright (c) Steve Scherf et al.
# Submitted via: CDex 1.51
#
DISCID=8509500a
DTITLE=Alabama - The Closer You Get
DYEAR=1900
DGENRE=Country
TTITLE0=The Closer You Get 01
TTITLE1=Lady Down On Love 02
TTITLE2=She Put The Sad In All His Songs 03
TTITLE3=Red River 04
TTITLE4=What In The Name Of Love  05
TTITLE5=Dixieland Delight 06
TTITLE6=Very Special Love 07
TTITLE7=Dixie Boy 08
TTITLE8=Alabama Sky 09
TTITLE9=Lovin' Man 10
EXTD=
EXTT0=
EXTT1=
EXTT2=
EXTT3=
EXTT4=
EXTT5=
EXTT6=
EXTT7=
EXTT8=
EXTT9=
PLAYORDER=
